<svg xmlns="http://www.w3.org/2000/svg" xmlns:xlink="http://www.w3.org/1999/xlink" width="635" zoomAndPan="magnify" viewBox="0 0 476.25 476.249988" height="635" preserveAspectRatio="xMidYMid meet" version="1.0"><defs><clipPath id="b6246b2d50"><path d="M 0 0 L 475.5 0 L 475.5 475.5 L 0 475.5 Z M 0 0 " clip-rule="nonzero"/></clipPath><clipPath id="d7cd4cd7f4"><path d="M 0 0 L 475.472656 0 L 475.472656 475.472656 L 0 475.472656 Z M 0 0 " clip-rule="nonzero"/></clipPath><clipPath id="88d6656413"><path d="M 0 0 L 475.472656 0 L 475.472656 475.472656 L 0 475.472656 Z M 0 0 " clip-rule="nonzero"/></clipPath><clipPath id="18ae3fde95"><rect x="0" width="476" y="0" height="476"/></clipPath><clipPath id="8578d6b357"><path d="M 171 233 L 310 233 L 310 351.40625 L 171 351.40625 Z M 171 233 " clip-rule="nonzero"/></clipPath></defs><g clip-path="url(#b6246b2d50)"><path fill="#ffffff" d="M 0 0 L 475.5 0 L 475.5 475.5 L 0 475.5 Z M 0 0 " fill-opacity="1" fill-rule="nonzero"/></g><g clip-path="url(#d7cd4cd7f4)"><g transform="matrix(1, 0, 0, 1, 0, 0)"><g clip-path="url(#18ae3fde95)"><g clip-path="url(#88d6656413)"><path fill="#ffffff" d="M 0 0 L 475.472656 0 L 475.472656 475.472656 L 0 475.472656 Z M 0 0 " fill-opacity="1" fill-rule="nonzero"/></g></g></g></g><path fill="#6ed0eb" d="M 170.554688 181.84375 C 196.125 174.289062 235.648438 213.050781 235.648438 213.050781 C 235.648438 213.050781 265.691406 177.671875 300.746094 181.84375 C 343.203125 186.894531 333.660156 243.980469 330 267.171875 C 347.09375 239.910156 343.65625 205.792969 340.617188 196.511719 C 336.488281 183.886719 326.085938 173.332031 313.363281 169.390625 C 269.609375 155.851562 235.648438 189.886719 235.648438 189.886719 C 235.648438 189.886719 194.1875 152.210938 158.132812 167.125 C 128.589844 179.34375 112.140625 222.8125 156.558594 258.148438 C 185.574219 281.230469 211.753906 293.347656 232.890625 330.453125 C 229.152344 301.492188 193.933594 274.339844 169.679688 255.046875 C 132.632812 225.570312 144.980469 189.394531 170.554688 181.84375 " fill-opacity="1" fill-rule="nonzero"/><g clip-path="url(#8578d6b357)"><path fill="#2e748f" d="M 267.109375 303.4375 C 290.550781 277.648438 303.269531 251.636719 305.898438 233.101562 C 317.292969 263.515625 299.128906 315.84375 248.21875 351.402344 C 254.460938 319.535156 227.949219 270.890625 171.890625 244.171875 C 246.472656 261.042969 267.109375 303.4375 267.109375 303.4375 " fill-opacity="1" fill-rule="nonzero"/></g><path fill="#2e748f" d="M 281.566406 257.203125 C 281.566406 265.964844 274.460938 273.070312 265.691406 273.070312 C 256.925781 273.070312 249.820312 265.964844 249.820312 257.203125 C 249.820312 248.441406 256.925781 241.335938 265.691406 241.335938 C 274.460938 241.335938 281.566406 248.441406 281.566406 257.203125 " fill-opacity="1" fill-rule="nonzero"/></svg>